%TF.GenerationSoftware,KiCad,Pcbnew,7.0.8*%
%TF.CreationDate,2023-10-30T16:28:05+00:00*%
%TF.ProjectId,usb_c_usb2,7573625f-635f-4757-9362-322e6b696361,rev?*%
%TF.SameCoordinates,Original*%
%TF.FileFunction,Copper,L1,Top*%
%TF.FilePolarity,Positive*%
%FSLAX46Y46*%
G04 Gerber Fmt 4.6, Leading zero omitted, Abs format (unit mm)*
G04 Created by KiCad (PCBNEW 7.0.8) date 2023-10-30 16:28:05*
%MOMM*%
%LPD*%
G01*
G04 APERTURE LIST*
G04 Aperture macros list*
%AMRoundRect*
0 Rectangle with rounded corners*
0 $1 Rounding radius*
0 $2 $3 $4 $5 $6 $7 $8 $9 X,Y pos of 4 corners*
0 Add a 4 corners polygon primitive as box body*
4,1,4,$2,$3,$4,$5,$6,$7,$8,$9,$2,$3,0*
0 Add four circle primitives for the rounded corners*
1,1,$1+$1,$2,$3*
1,1,$1+$1,$4,$5*
1,1,$1+$1,$6,$7*
1,1,$1+$1,$8,$9*
0 Add four rect primitives between the rounded corners*
20,1,$1+$1,$2,$3,$4,$5,0*
20,1,$1+$1,$4,$5,$6,$7,0*
20,1,$1+$1,$6,$7,$8,$9,0*
20,1,$1+$1,$8,$9,$2,$3,0*%
G04 Aperture macros list end*
%TA.AperFunction,ComponentPad*%
%ADD10R,1.500000X1.500000*%
%TD*%
%TA.AperFunction,SMDPad,CuDef*%
%ADD11R,0.520000X1.500000*%
%TD*%
%TA.AperFunction,SMDPad,CuDef*%
%ADD12R,0.270000X1.500000*%
%TD*%
%TA.AperFunction,ComponentPad*%
%ADD13O,1.300000X2.300000*%
%TD*%
%TA.AperFunction,ComponentPad*%
%ADD14O,1.300000X2.600000*%
%TD*%
%TA.AperFunction,SMDPad,CuDef*%
%ADD15RoundRect,0.237500X-0.250000X-0.237500X0.250000X-0.237500X0.250000X0.237500X-0.250000X0.237500X0*%
%TD*%
%TA.AperFunction,SMDPad,CuDef*%
%ADD16RoundRect,0.237500X0.250000X0.237500X-0.250000X0.237500X-0.250000X-0.237500X0.250000X-0.237500X0*%
%TD*%
%TA.AperFunction,Conductor*%
%ADD17C,0.250000*%
%TD*%
G04 APERTURE END LIST*
D10*
%TO.P,-,1,1*%
%TO.N,Net-(P1-SHIELD)*%
X145890000Y-104409840D03*
%TD*%
%TO.P,+,1,1*%
%TO.N,Net-(P1-VBUS-PadA4)*%
X153510000Y-104420000D03*
%TD*%
%TO.P,D+,1,1*%
%TO.N,Net-(P1-D+)*%
X148430000Y-104420000D03*
%TD*%
%TO.P,D-,1,1*%
%TO.N,Net-(P1-D-)*%
X150970000Y-104409840D03*
%TD*%
D11*
%TO.P,P1,A1,GND*%
%TO.N,Net-(P1-SHIELD)*%
X152880000Y-98567000D03*
%TO.P,P1,A4,VBUS*%
%TO.N,Net-(P1-VBUS-PadA4)*%
X152130000Y-98567000D03*
D12*
%TO.P,P1,A5,CC*%
%TO.N,Net-(P1-CC)*%
X148030000Y-98567000D03*
%TO.P,P1,A6,D+*%
%TO.N,Net-(P1-D+)*%
X150030000Y-98565000D03*
X149030000Y-98567000D03*
%TO.P,P1,A7,D-*%
%TO.N,Net-(P1-D-)*%
X150530000Y-98565000D03*
X149530000Y-98567000D03*
D11*
%TO.P,P1,A9,VBUS*%
%TO.N,Net-(P1-VBUS-PadA4)*%
X147430000Y-98567000D03*
%TO.P,P1,A12,GND*%
%TO.N,Net-(P1-SHIELD)*%
X146680000Y-98567000D03*
D12*
%TO.P,P1,B5,VCONN*%
%TO.N,Net-(P1-VCONN)*%
X151030000Y-98567000D03*
D13*
%TO.P,P1,S1,SHIELD*%
%TO.N,Net-(P1-SHIELD)*%
X154100000Y-97940000D03*
D14*
X154100000Y-94115000D03*
D13*
X145460000Y-97940000D03*
D14*
X145460000Y-94115000D03*
%TD*%
D15*
%TO.P,R2,1*%
%TO.N,Net-(P1-VCONN)*%
X151345000Y-101590000D03*
%TO.P,R2,2*%
%TO.N,Net-(P1-SHIELD)*%
X153170000Y-101590000D03*
%TD*%
D16*
%TO.P,R1,1*%
%TO.N,Net-(P1-CC)*%
X148302500Y-101580000D03*
%TO.P,R1,2*%
%TO.N,Net-(P1-SHIELD)*%
X146477500Y-101580000D03*
%TD*%
D17*
%TO.N,Net-(P1-SHIELD)*%
X152880000Y-98567000D02*
X153473000Y-98567000D01*
X153473000Y-98567000D02*
X154100000Y-97940000D01*
X146477500Y-101580000D02*
X146477500Y-98769500D01*
X146477500Y-98769500D02*
X146680000Y-98567000D01*
X146683800Y-98679000D02*
X146090800Y-98679000D01*
X145900000Y-104669840D02*
X145900000Y-102157500D01*
X153170000Y-101590000D02*
X153170000Y-98857000D01*
X145900000Y-102157500D02*
X146477500Y-101580000D01*
X153170000Y-98857000D02*
X152880000Y-98567000D01*
X146090800Y-98679000D02*
X145463800Y-98052000D01*
%TO.N,Net-(P1-VBUS-PadA4)*%
X153520000Y-104669840D02*
X152270000Y-103419840D01*
X152130000Y-97519594D02*
X152130000Y-98567000D01*
X147430000Y-98567000D02*
X147430000Y-97644594D01*
X152130000Y-100730000D02*
X152130000Y-98567000D01*
X147430000Y-97644594D02*
X148384594Y-96690000D01*
X152270000Y-100870000D02*
X152130000Y-100730000D01*
X151300406Y-96690000D02*
X152130000Y-97519594D01*
X152270000Y-103419840D02*
X152270000Y-100870000D01*
X148384594Y-96690000D02*
X151300406Y-96690000D01*
%TO.N,Net-(P1-CC)*%
X148030000Y-101307500D02*
X148302500Y-101580000D01*
X148030000Y-98567000D02*
X148030000Y-101307500D01*
%TO.N,Net-(P1-VCONN)*%
X151030000Y-98567000D02*
X151030000Y-101275000D01*
X151030000Y-101275000D02*
X151345000Y-101590000D01*
%TO.N,Net-(P1-D+)*%
X148440000Y-103750000D02*
X149350000Y-102840000D01*
X150030000Y-98565000D02*
X150030000Y-99600000D01*
X149350000Y-102840000D02*
X149350000Y-100280000D01*
X149350000Y-100280000D02*
X149030000Y-99960000D01*
X148440000Y-104670000D02*
X148440000Y-103750000D01*
X150030000Y-99600000D02*
X149350000Y-100280000D01*
X149030000Y-99960000D02*
X149030000Y-98567000D01*
%TO.N,Net-(P1-D-)*%
X150089620Y-97280000D02*
X150530000Y-97720380D01*
X150090000Y-100720000D02*
X150530000Y-100280000D01*
X150090000Y-103779840D02*
X150090000Y-100720000D01*
X149530000Y-98567000D02*
X149530000Y-97720380D01*
X150530000Y-97720380D02*
X150530000Y-98565000D01*
X150980000Y-104669840D02*
X150090000Y-103779840D01*
X149530000Y-97720380D02*
X149970380Y-97280000D01*
X149970380Y-97280000D02*
X150089620Y-97280000D01*
X150530000Y-100280000D02*
X150530000Y-98565000D01*
%TD*%
M02*
