%TF.GenerationSoftware,KiCad,Pcbnew,7.0.8*%
%TF.CreationDate,2023-10-30T16:28:06+00:00*%
%TF.ProjectId,usb_c_usb2,7573625f-635f-4757-9362-322e6b696361,rev?*%
%TF.SameCoordinates,Original*%
%TF.FileFunction,Legend,Bot*%
%TF.FilePolarity,Positive*%
%FSLAX46Y46*%
G04 Gerber Fmt 4.6, Leading zero omitted, Abs format (unit mm)*
G04 Created by KiCad (PCBNEW 7.0.8) date 2023-10-30 16:28:06*
%MOMM*%
%LPD*%
G01*
G04 APERTURE LIST*
%ADD10C,0.150000*%
%ADD11C,0.187500*%
%ADD12C,0.250000*%
G04 APERTURE END LIST*
D10*
X153890951Y-102873866D02*
X153129047Y-102873866D01*
X153509999Y-103254819D02*
X153509999Y-102492914D01*
X151830951Y-103374819D02*
X151830951Y-102374819D01*
X151830951Y-102374819D02*
X151592856Y-102374819D01*
X151592856Y-102374819D02*
X151449999Y-102422438D01*
X151449999Y-102422438D02*
X151354761Y-102517676D01*
X151354761Y-102517676D02*
X151307142Y-102612914D01*
X151307142Y-102612914D02*
X151259523Y-102803390D01*
X151259523Y-102803390D02*
X151259523Y-102946247D01*
X151259523Y-102946247D02*
X151307142Y-103136723D01*
X151307142Y-103136723D02*
X151354761Y-103231961D01*
X151354761Y-103231961D02*
X151449999Y-103327200D01*
X151449999Y-103327200D02*
X151592856Y-103374819D01*
X151592856Y-103374819D02*
X151830951Y-103374819D01*
X150830951Y-102993866D02*
X150069047Y-102993866D01*
X149260951Y-103374819D02*
X149260951Y-102374819D01*
X149260951Y-102374819D02*
X149022856Y-102374819D01*
X149022856Y-102374819D02*
X148879999Y-102422438D01*
X148879999Y-102422438D02*
X148784761Y-102517676D01*
X148784761Y-102517676D02*
X148737142Y-102612914D01*
X148737142Y-102612914D02*
X148689523Y-102803390D01*
X148689523Y-102803390D02*
X148689523Y-102946247D01*
X148689523Y-102946247D02*
X148737142Y-103136723D01*
X148737142Y-103136723D02*
X148784761Y-103231961D01*
X148784761Y-103231961D02*
X148879999Y-103327200D01*
X148879999Y-103327200D02*
X149022856Y-103374819D01*
X149022856Y-103374819D02*
X149260951Y-103374819D01*
X148260951Y-102993866D02*
X147499047Y-102993866D01*
X147879999Y-103374819D02*
X147879999Y-102612914D01*
X146220951Y-102873866D02*
X145459047Y-102873866D01*
D11*
X153366645Y-95788464D02*
X153366645Y-96288464D01*
X153688073Y-95788464D02*
X153688073Y-96181321D01*
X153688073Y-96181321D02*
X153652359Y-96252750D01*
X153652359Y-96252750D02*
X153580930Y-96288464D01*
X153580930Y-96288464D02*
X153473787Y-96288464D01*
X153473787Y-96288464D02*
X153402359Y-96252750D01*
X153402359Y-96252750D02*
X153366645Y-96217035D01*
X153045216Y-96252750D02*
X152973788Y-96288464D01*
X152973788Y-96288464D02*
X152830931Y-96288464D01*
X152830931Y-96288464D02*
X152759502Y-96252750D01*
X152759502Y-96252750D02*
X152723788Y-96181321D01*
X152723788Y-96181321D02*
X152723788Y-96145607D01*
X152723788Y-96145607D02*
X152759502Y-96074178D01*
X152759502Y-96074178D02*
X152830931Y-96038464D01*
X152830931Y-96038464D02*
X152938074Y-96038464D01*
X152938074Y-96038464D02*
X153009502Y-96002750D01*
X153009502Y-96002750D02*
X153045216Y-95931321D01*
X153045216Y-95931321D02*
X153045216Y-95895607D01*
X153045216Y-95895607D02*
X153009502Y-95824178D01*
X153009502Y-95824178D02*
X152938074Y-95788464D01*
X152938074Y-95788464D02*
X152830931Y-95788464D01*
X152830931Y-95788464D02*
X152759502Y-95824178D01*
X152402359Y-96288464D02*
X152402359Y-95538464D01*
X152402359Y-95824178D02*
X152330931Y-95788464D01*
X152330931Y-95788464D02*
X152188073Y-95788464D01*
X152188073Y-95788464D02*
X152116645Y-95824178D01*
X152116645Y-95824178D02*
X152080931Y-95859892D01*
X152080931Y-95859892D02*
X152045216Y-95931321D01*
X152045216Y-95931321D02*
X152045216Y-96145607D01*
X152045216Y-96145607D02*
X152080931Y-96217035D01*
X152080931Y-96217035D02*
X152116645Y-96252750D01*
X152116645Y-96252750D02*
X152188073Y-96288464D01*
X152188073Y-96288464D02*
X152330931Y-96288464D01*
X152330931Y-96288464D02*
X152402359Y-96252750D01*
X151902360Y-96359892D02*
X151330931Y-96359892D01*
X150830931Y-96252750D02*
X150902359Y-96288464D01*
X150902359Y-96288464D02*
X151045216Y-96288464D01*
X151045216Y-96288464D02*
X151116645Y-96252750D01*
X151116645Y-96252750D02*
X151152359Y-96217035D01*
X151152359Y-96217035D02*
X151188073Y-96145607D01*
X151188073Y-96145607D02*
X151188073Y-95931321D01*
X151188073Y-95931321D02*
X151152359Y-95859892D01*
X151152359Y-95859892D02*
X151116645Y-95824178D01*
X151116645Y-95824178D02*
X151045216Y-95788464D01*
X151045216Y-95788464D02*
X150902359Y-95788464D01*
X150902359Y-95788464D02*
X150830931Y-95824178D01*
X150688074Y-96359892D02*
X150116645Y-96359892D01*
X150045216Y-95788464D02*
X149759502Y-95788464D01*
X149938073Y-95538464D02*
X149938073Y-96181321D01*
X149938073Y-96181321D02*
X149902359Y-96252750D01*
X149902359Y-96252750D02*
X149830930Y-96288464D01*
X149830930Y-96288464D02*
X149759502Y-96288464D01*
X149402359Y-96288464D02*
X149473788Y-96252750D01*
X149473788Y-96252750D02*
X149509502Y-96217035D01*
X149509502Y-96217035D02*
X149545216Y-96145607D01*
X149545216Y-96145607D02*
X149545216Y-95931321D01*
X149545216Y-95931321D02*
X149509502Y-95859892D01*
X149509502Y-95859892D02*
X149473788Y-95824178D01*
X149473788Y-95824178D02*
X149402359Y-95788464D01*
X149402359Y-95788464D02*
X149295216Y-95788464D01*
X149295216Y-95788464D02*
X149223788Y-95824178D01*
X149223788Y-95824178D02*
X149188074Y-95859892D01*
X149188074Y-95859892D02*
X149152359Y-95931321D01*
X149152359Y-95931321D02*
X149152359Y-96145607D01*
X149152359Y-96145607D02*
X149188074Y-96217035D01*
X149188074Y-96217035D02*
X149223788Y-96252750D01*
X149223788Y-96252750D02*
X149295216Y-96288464D01*
X149295216Y-96288464D02*
X149402359Y-96288464D01*
X149009503Y-96359892D02*
X148438074Y-96359892D01*
X147938074Y-95788464D02*
X147938074Y-96288464D01*
X148259502Y-95788464D02*
X148259502Y-96181321D01*
X148259502Y-96181321D02*
X148223788Y-96252750D01*
X148223788Y-96252750D02*
X148152359Y-96288464D01*
X148152359Y-96288464D02*
X148045216Y-96288464D01*
X148045216Y-96288464D02*
X147973788Y-96252750D01*
X147973788Y-96252750D02*
X147938074Y-96217035D01*
X147616645Y-96252750D02*
X147545217Y-96288464D01*
X147545217Y-96288464D02*
X147402360Y-96288464D01*
X147402360Y-96288464D02*
X147330931Y-96252750D01*
X147330931Y-96252750D02*
X147295217Y-96181321D01*
X147295217Y-96181321D02*
X147295217Y-96145607D01*
X147295217Y-96145607D02*
X147330931Y-96074178D01*
X147330931Y-96074178D02*
X147402360Y-96038464D01*
X147402360Y-96038464D02*
X147509503Y-96038464D01*
X147509503Y-96038464D02*
X147580931Y-96002750D01*
X147580931Y-96002750D02*
X147616645Y-95931321D01*
X147616645Y-95931321D02*
X147616645Y-95895607D01*
X147616645Y-95895607D02*
X147580931Y-95824178D01*
X147580931Y-95824178D02*
X147509503Y-95788464D01*
X147509503Y-95788464D02*
X147402360Y-95788464D01*
X147402360Y-95788464D02*
X147330931Y-95824178D01*
X146973788Y-96288464D02*
X146973788Y-95538464D01*
X146973788Y-95824178D02*
X146902360Y-95788464D01*
X146902360Y-95788464D02*
X146759502Y-95788464D01*
X146759502Y-95788464D02*
X146688074Y-95824178D01*
X146688074Y-95824178D02*
X146652360Y-95859892D01*
X146652360Y-95859892D02*
X146616645Y-95931321D01*
X146616645Y-95931321D02*
X146616645Y-96145607D01*
X146616645Y-96145607D02*
X146652360Y-96217035D01*
X146652360Y-96217035D02*
X146688074Y-96252750D01*
X146688074Y-96252750D02*
X146759502Y-96288464D01*
X146759502Y-96288464D02*
X146902360Y-96288464D01*
X146902360Y-96288464D02*
X146973788Y-96252750D01*
X146330931Y-95609892D02*
X146295217Y-95574178D01*
X146295217Y-95574178D02*
X146223789Y-95538464D01*
X146223789Y-95538464D02*
X146045217Y-95538464D01*
X146045217Y-95538464D02*
X145973789Y-95574178D01*
X145973789Y-95574178D02*
X145938074Y-95609892D01*
X145938074Y-95609892D02*
X145902360Y-95681321D01*
X145902360Y-95681321D02*
X145902360Y-95752750D01*
X145902360Y-95752750D02*
X145938074Y-95859892D01*
X145938074Y-95859892D02*
X146366646Y-96288464D01*
X146366646Y-96288464D02*
X145902360Y-96288464D01*
D12*
X150754098Y-97820809D02*
X151087431Y-97820809D01*
X151087431Y-98344619D02*
X151087431Y-97344619D01*
X151087431Y-97344619D02*
X150611241Y-97344619D01*
X149754098Y-98344619D02*
X150230288Y-98344619D01*
X150230288Y-98344619D02*
X150230288Y-97344619D01*
X149563621Y-97344619D02*
X148992193Y-97344619D01*
X149277907Y-98344619D02*
X149277907Y-97344619D01*
X151135050Y-99049857D02*
X151087431Y-99002238D01*
X151087431Y-99002238D02*
X150992193Y-98954619D01*
X150992193Y-98954619D02*
X150754098Y-98954619D01*
X150754098Y-98954619D02*
X150658860Y-99002238D01*
X150658860Y-99002238D02*
X150611241Y-99049857D01*
X150611241Y-99049857D02*
X150563622Y-99145095D01*
X150563622Y-99145095D02*
X150563622Y-99240333D01*
X150563622Y-99240333D02*
X150611241Y-99383190D01*
X150611241Y-99383190D02*
X151182669Y-99954619D01*
X151182669Y-99954619D02*
X150563622Y-99954619D01*
X149944574Y-98954619D02*
X149849336Y-98954619D01*
X149849336Y-98954619D02*
X149754098Y-99002238D01*
X149754098Y-99002238D02*
X149706479Y-99049857D01*
X149706479Y-99049857D02*
X149658860Y-99145095D01*
X149658860Y-99145095D02*
X149611241Y-99335571D01*
X149611241Y-99335571D02*
X149611241Y-99573666D01*
X149611241Y-99573666D02*
X149658860Y-99764142D01*
X149658860Y-99764142D02*
X149706479Y-99859380D01*
X149706479Y-99859380D02*
X149754098Y-99907000D01*
X149754098Y-99907000D02*
X149849336Y-99954619D01*
X149849336Y-99954619D02*
X149944574Y-99954619D01*
X149944574Y-99954619D02*
X150039812Y-99907000D01*
X150039812Y-99907000D02*
X150087431Y-99859380D01*
X150087431Y-99859380D02*
X150135050Y-99764142D01*
X150135050Y-99764142D02*
X150182669Y-99573666D01*
X150182669Y-99573666D02*
X150182669Y-99335571D01*
X150182669Y-99335571D02*
X150135050Y-99145095D01*
X150135050Y-99145095D02*
X150087431Y-99049857D01*
X150087431Y-99049857D02*
X150039812Y-99002238D01*
X150039812Y-99002238D02*
X149944574Y-98954619D01*
X149230288Y-99049857D02*
X149182669Y-99002238D01*
X149182669Y-99002238D02*
X149087431Y-98954619D01*
X149087431Y-98954619D02*
X148849336Y-98954619D01*
X148849336Y-98954619D02*
X148754098Y-99002238D01*
X148754098Y-99002238D02*
X148706479Y-99049857D01*
X148706479Y-99049857D02*
X148658860Y-99145095D01*
X148658860Y-99145095D02*
X148658860Y-99240333D01*
X148658860Y-99240333D02*
X148706479Y-99383190D01*
X148706479Y-99383190D02*
X149277907Y-99954619D01*
X149277907Y-99954619D02*
X148658860Y-99954619D01*
X148325526Y-98954619D02*
X147706479Y-98954619D01*
X147706479Y-98954619D02*
X148039812Y-99335571D01*
X148039812Y-99335571D02*
X147896955Y-99335571D01*
X147896955Y-99335571D02*
X147801717Y-99383190D01*
X147801717Y-99383190D02*
X147754098Y-99430809D01*
X147754098Y-99430809D02*
X147706479Y-99526047D01*
X147706479Y-99526047D02*
X147706479Y-99764142D01*
X147706479Y-99764142D02*
X147754098Y-99859380D01*
X147754098Y-99859380D02*
X147801717Y-99907000D01*
X147801717Y-99907000D02*
X147896955Y-99954619D01*
X147896955Y-99954619D02*
X148182669Y-99954619D01*
X148182669Y-99954619D02*
X148277907Y-99907000D01*
X148277907Y-99907000D02*
X148325526Y-99859380D01*
M02*
